<?xml version="1.0" encoding="UTF-8" standalone="no"?>
<!DOCTYPE svg PUBLIC "-//W3C//DTD SVG 1.1//EN"
 "http://www.w3.org/Graphics/SVG/1.1/DTD/svg11.dtd">
<!-- Generated by graphviz version 12.2.1 (0)
 -->
<!-- Pages: 1 -->
<svg width="1284pt" height="1066pt"
 viewBox="0.00 0.00 1284.40 1065.95" xmlns="http://www.w3.org/2000/svg" xmlns:xlink="http://www.w3.org/1999/xlink">
<g id="graph0" class="graph" transform="scale(1 1) rotate(0) translate(144 921.95)">
<polygon fill="#0d1117" stroke="none" points="-144,144 -144,-921.95 1140.4,-921.95 1140.4,144 -144,144"/>
<g id="clust1" class="cluster">
<title>cluster_WCN Cluster</title>
<path fill="#161b22" stroke="#aeb6be" d="M132.4,-8C132.4,-8 976.4,-8 976.4,-8 982.4,-8 988.4,-14 988.4,-20 988.4,-20 988.4,-430.35 988.4,-430.35 988.4,-436.35 982.4,-442.35 976.4,-442.35 976.4,-442.35 132.4,-442.35 132.4,-442.35 126.4,-442.35 120.4,-436.35 120.4,-430.35 120.4,-430.35 120.4,-20 120.4,-20 120.4,-14 126.4,-8 132.4,-8"/>
<text text-anchor="middle" x="165.9" y="-426.95" font-family="Sans-Serif" font-size="12.00" fill="#c9d1d9">WCN Cluster</text>
</g>
<g id="clust2" class="cluster">
<title>cluster_Node Operator 1 (Private Network)</title>
<path fill="#21262d" stroke="#aeb6be" d="M140.4,-16C140.4,-16 392.4,-16 392.4,-16 398.4,-16 404.4,-22 404.4,-28 404.4,-28 404.4,-400.1 404.4,-400.1 404.4,-406.1 398.4,-412.1 392.4,-412.1 392.4,-412.1 140.4,-412.1 140.4,-412.1 134.4,-412.1 128.4,-406.1 128.4,-400.1 128.4,-400.1 128.4,-28 128.4,-28 128.4,-22 134.4,-16 140.4,-16"/>
<text text-anchor="middle" x="241.03" y="-396.7" font-family="Sans-Serif" font-size="12.00" fill="#c9d1d9">Node Operator 1 (Private Network)</text>
</g>
<g id="clust3" class="cluster">
<title>cluster_WCN Nodes</title>
<path fill="#2d333b" stroke="#aeb6be" d="M148.4,-206.8C148.4,-206.8 384.4,-206.8 384.4,-206.8 390.4,-206.8 396.4,-212.8 396.4,-218.8 396.4,-218.8 396.4,-369.85 396.4,-369.85 396.4,-375.85 390.4,-381.85 384.4,-381.85 384.4,-381.85 148.4,-381.85 148.4,-381.85 142.4,-381.85 136.4,-375.85 136.4,-369.85 136.4,-369.85 136.4,-218.8 136.4,-218.8 136.4,-212.8 142.4,-206.8 148.4,-206.8"/>
<text text-anchor="middle" x="179.65" y="-366.45" font-family="Sans-Serif" font-size="12.00" fill="#c9d1d9">WCN Nodes</text>
</g>
<g id="clust4" class="cluster">
<title>cluster_Node Operator ... (Private Network)</title>
<path fill="#21262d" stroke="#aeb6be" d="M428.4,-16C428.4,-16 680.4,-16 680.4,-16 686.4,-16 692.4,-22 692.4,-28 692.4,-28 692.4,-400.1 692.4,-400.1 692.4,-406.1 686.4,-412.1 680.4,-412.1 680.4,-412.1 428.4,-412.1 428.4,-412.1 422.4,-412.1 416.4,-406.1 416.4,-400.1 416.4,-400.1 416.4,-28 416.4,-28 416.4,-22 422.4,-16 428.4,-16"/>
<text text-anchor="middle" x="530.9" y="-396.7" font-family="Sans-Serif" font-size="12.00" fill="#c9d1d9">Node Operator ... (Private Network)</text>
</g>
<g id="clust5" class="cluster">
<title>cluster_WCN Nodes</title>
<path fill="#2d333b" stroke="#aeb6be" d="M436.4,-206.8C436.4,-206.8 672.4,-206.8 672.4,-206.8 678.4,-206.8 684.4,-212.8 684.4,-218.8 684.4,-218.8 684.4,-369.85 684.4,-369.85 684.4,-375.85 678.4,-381.85 672.4,-381.85 672.4,-381.85 436.4,-381.85 436.4,-381.85 430.4,-381.85 424.4,-375.85 424.4,-369.85 424.4,-369.85 424.4,-218.8 424.4,-218.8 424.4,-212.8 430.4,-206.8 436.4,-206.8"/>
<text text-anchor="middle" x="467.65" y="-366.45" font-family="Sans-Serif" font-size="12.00" fill="#c9d1d9">WCN Nodes</text>
</g>
<g id="clust6" class="cluster">
<title>cluster_Node Operator N (Private Network)</title>
<path fill="#21262d" stroke="#aeb6be" d="M716.4,-16C716.4,-16 968.4,-16 968.4,-16 974.4,-16 980.4,-22 980.4,-28 980.4,-28 980.4,-400.1 980.4,-400.1 980.4,-406.1 974.4,-412.1 968.4,-412.1 968.4,-412.1 716.4,-412.1 716.4,-412.1 710.4,-412.1 704.4,-406.1 704.4,-400.1 704.4,-400.1 704.4,-28 704.4,-28 704.4,-22 710.4,-16 716.4,-16"/>
<text text-anchor="middle" x="817.77" y="-396.7" font-family="Sans-Serif" font-size="12.00" fill="#c9d1d9">Node Operator N (Private Network)</text>
</g>
<g id="clust7" class="cluster">
<title>cluster_WCN Nodes</title>
<path fill="#2d333b" stroke="#aeb6be" d="M724.4,-206.8C724.4,-206.8 960.4,-206.8 960.4,-206.8 966.4,-206.8 972.4,-212.8 972.4,-218.8 972.4,-218.8 972.4,-369.85 972.4,-369.85 972.4,-375.85 966.4,-381.85 960.4,-381.85 960.4,-381.85 724.4,-381.85 724.4,-381.85 718.4,-381.85 712.4,-375.85 712.4,-369.85 712.4,-369.85 712.4,-218.8 712.4,-218.8 712.4,-212.8 718.4,-206.8 724.4,-206.8"/>
<text text-anchor="middle" x="755.65" y="-366.45" font-family="Sans-Serif" font-size="12.00" fill="#c9d1d9">WCN Nodes</text>
</g>
<!-- 9c49b31c743d483a83a2bb90524cb102 -->
<g id="node1" class="node">
<title>9c49b31c743d483a83a2bb90524cb102</title>
<image xlink:href="./icons/document-text.svg" width="100.8px" height="100.8px" preserveAspectRatio="xMinYMin meet" x="0" y="-333.6"/>
<text text-anchor="middle" x="50.4" y="-218.95" font-family="Sans-Serif" font-size="13.00" fill="#c9d1d9">Smart&#45;Contract</text>
</g>
<!-- d7e062530a7f4277b16808882742719d -->
<g id="node2" class="node">
<title>d7e062530a7f4277b16808882742719d</title>
<image xlink:href="./icons/users.svg" width="100.8px" height="100.8px" preserveAspectRatio="xMinYMin meet" x="432" y="-759.95"/>
<text text-anchor="middle" x="482.4" y="-645.3" font-family="Sans-Serif" font-size="13.00" fill="#c9d1d9">Clients</text>
</g>
<!-- df9abada2d17490ebc60752ac0af741b -->
<g id="node3" class="node">
<title>df9abada2d17490ebc60752ac0af741b</title>
<image xlink:href="./icons/cloud.svg" width="100.8px" height="100.8px" preserveAspectRatio="xMinYMin meet" x="432" y="-569.15"/>
<text text-anchor="middle" x="482.4" y="-454.5" font-family="Sans-Serif" font-size="13.00" fill="#c9d1d9">Public Internet</text>
</g>
<!-- d7e062530a7f4277b16808882742719d&#45;&gt;df9abada2d17490ebc60752ac0af741b -->
<g id="edge1" class="edge">
<title>d7e062530a7f4277b16808882742719d&#45;&gt;df9abada2d17490ebc60752ac0af741b</title>
<path fill="none" stroke="#7b8894" d="M482.4,-629.69C482.4,-629.69 482.4,-598.45 482.4,-598.45"/>
<polygon fill="#7b8894" stroke="#7b8894" points="478.9,-629.69 482.4,-639.69 485.9,-629.69 478.9,-629.69"/>
<polygon fill="#7b8894" stroke="#7b8894" points="485.9,-598.45 482.4,-588.45 478.9,-598.45 485.9,-598.45"/>
</g>
<!-- df9abada2d17490ebc60752ac0af741b&#45;&gt;9c49b31c743d483a83a2bb90524cb102 -->
<g id="edge2" class="edge">
<title>df9abada2d17490ebc60752ac0af741b&#45;&gt;9c49b31c743d483a83a2bb90524cb102</title>
<path fill="none" stroke="#7b8894" d="M420.91,-553C420.91,-553 50.4,-553 50.4,-553 50.4,-553 50.4,-362.8 50.4,-362.8"/>
<polygon fill="#7b8894" stroke="#7b8894" points="420.91,-556.5 430.91,-553 420.91,-549.5 420.91,-556.5"/>
<polygon fill="#7b8894" stroke="#7b8894" points="53.9,-362.8 50.4,-352.8 46.9,-362.8 53.9,-362.8"/>
</g>
<!-- b4ad24ecd9b444f7855a8d66b3b28065 -->
<g id="node4" class="node">
<title>b4ad24ecd9b444f7855a8d66b3b28065</title>
<image xlink:href="./icons/server.svg" width="100.8px" height="100.8px" preserveAspectRatio="xMinYMin meet" x="144" y="-333.6"/>
<text text-anchor="middle" x="194.4" y="-218.95" font-family="Sans-Serif" font-size="13.00" fill="#c9d1d9">Primary</text>
</g>
<!-- df9abada2d17490ebc60752ac0af741b&#45;&gt;b4ad24ecd9b444f7855a8d66b3b28065 -->
<g id="edge5" class="edge">
<title>df9abada2d17490ebc60752ac0af741b&#45;&gt;b4ad24ecd9b444f7855a8d66b3b28065</title>
<path fill="none" stroke="#7b8894" d="M420.72,-519C420.72,-519 194.4,-519 194.4,-519 194.4,-519 194.4,-362.92 194.4,-362.92"/>
<polygon fill="#7b8894" stroke="#7b8894" points="420.72,-522.5 430.72,-519 420.72,-515.5 420.72,-522.5"/>
<polygon fill="#7b8894" stroke="#7b8894" points="197.9,-362.92 194.4,-352.92 190.9,-362.92 197.9,-362.92"/>
</g>
<!-- cd030343bdad48de9c57b0871cbabf1a -->
<g id="node6" class="node">
<title>cd030343bdad48de9c57b0871cbabf1a</title>
<image xlink:href="./icons/server-stack.svg" width="100.8px" height="100.8px" preserveAspectRatio="xMinYMin meet" x="288" y="-333.6"/>
<text text-anchor="middle" x="338.4" y="-218.95" font-family="Sans-Serif" font-size="13.00" fill="#c9d1d9">Secondary (1..M)</text>
</g>
<!-- df9abada2d17490ebc60752ac0af741b&#45;&gt;cd030343bdad48de9c57b0871cbabf1a -->
<g id="edge6" class="edge">
<title>df9abada2d17490ebc60752ac0af741b&#45;&gt;cd030343bdad48de9c57b0871cbabf1a</title>
<path fill="none" stroke="#7b8894" d="M420.52,-485C420.52,-485 338.4,-485 338.4,-485 338.4,-485 338.4,-363.03 338.4,-363.03"/>
<polygon fill="#7b8894" stroke="#7b8894" points="420.52,-488.5 430.52,-485 420.52,-481.5 420.52,-488.5"/>
<polygon fill="#7b8894" stroke="#7b8894" points="341.9,-363.03 338.4,-353.03 334.9,-363.03 341.9,-363.03"/>
</g>
<!-- 17fff7d638bc48ae843afc9e8b666652 -->
<g id="node7" class="node">
<title>17fff7d638bc48ae843afc9e8b666652</title>
<image xlink:href="./icons/server.svg" width="100.8px" height="100.8px" preserveAspectRatio="xMinYMin meet" x="432" y="-333.6"/>
<text text-anchor="middle" x="482.4" y="-218.95" font-family="Sans-Serif" font-size="13.00" fill="#c9d1d9">Primary</text>
</g>
<!-- df9abada2d17490ebc60752ac0af741b&#45;&gt;17fff7d638bc48ae843afc9e8b666652 -->
<g id="edge9" class="edge">
<title>df9abada2d17490ebc60752ac0af741b&#45;&gt;17fff7d638bc48ae843afc9e8b666652</title>
<path fill="none" stroke="#7b8894" d="M482.4,-439.11C482.4,-439.11 482.4,-363.1 482.4,-363.1"/>
<polygon fill="#7b8894" stroke="#7b8894" points="478.9,-439.11 482.4,-449.11 485.9,-439.11 478.9,-439.11"/>
<polygon fill="#7b8894" stroke="#7b8894" points="485.9,-363.1 482.4,-353.1 478.9,-363.1 485.9,-363.1"/>
</g>
<!-- 8c636471e5224b36802ca7c93be319b5 -->
<g id="node9" class="node">
<title>8c636471e5224b36802ca7c93be319b5</title>
<image xlink:href="./icons/server-stack.svg" width="100.8px" height="100.8px" preserveAspectRatio="xMinYMin meet" x="576" y="-333.6"/>
<text text-anchor="middle" x="626.4" y="-218.95" font-family="Sans-Serif" font-size="13.00" fill="#c9d1d9">Secondary (1..M)</text>
</g>
<!-- df9abada2d17490ebc60752ac0af741b&#45;&gt;8c636471e5224b36802ca7c93be319b5 -->
<g id="edge10" class="edge">
<title>df9abada2d17490ebc60752ac0af741b&#45;&gt;8c636471e5224b36802ca7c93be319b5</title>
<path fill="none" stroke="#7b8894" d="M544.28,-485C544.28,-485 626.4,-485 626.4,-485 626.4,-485 626.4,-363.03 626.4,-363.03"/>
<polygon fill="#7b8894" stroke="#7b8894" points="544.28,-481.5 534.28,-485 544.28,-488.5 544.28,-481.5"/>
<polygon fill="#7b8894" stroke="#7b8894" points="629.9,-363.03 626.4,-353.03 622.9,-363.03 629.9,-363.03"/>
</g>
<!-- 1bf1243967b94afdb763c0c1f1bef7e4 -->
<g id="node10" class="node">
<title>1bf1243967b94afdb763c0c1f1bef7e4</title>
<image xlink:href="./icons/server.svg" width="100.8px" height="100.8px" preserveAspectRatio="xMinYMin meet" x="720" y="-333.6"/>
<text text-anchor="middle" x="770.4" y="-218.95" font-family="Sans-Serif" font-size="13.00" fill="#c9d1d9">Primary</text>
</g>
<!-- df9abada2d17490ebc60752ac0af741b&#45;&gt;1bf1243967b94afdb763c0c1f1bef7e4 -->
<g id="edge13" class="edge">
<title>df9abada2d17490ebc60752ac0af741b&#45;&gt;1bf1243967b94afdb763c0c1f1bef7e4</title>
<path fill="none" stroke="#7b8894" d="M544.08,-519C544.08,-519 770.4,-519 770.4,-519 770.4,-519 770.4,-362.92 770.4,-362.92"/>
<polygon fill="#7b8894" stroke="#7b8894" points="544.08,-515.5 534.08,-519 544.08,-522.5 544.08,-515.5"/>
<polygon fill="#7b8894" stroke="#7b8894" points="773.9,-362.92 770.4,-352.92 766.9,-362.92 773.9,-362.92"/>
</g>
<!-- 71239b8c063c4f5f9c76d2f91f73a950 -->
<g id="node12" class="node">
<title>71239b8c063c4f5f9c76d2f91f73a950</title>
<image xlink:href="./icons/server-stack.svg" width="100.8px" height="100.8px" preserveAspectRatio="xMinYMin meet" x="864" y="-333.6"/>
<text text-anchor="middle" x="914.4" y="-218.95" font-family="Sans-Serif" font-size="13.00" fill="#c9d1d9">Secondary (1..M)</text>
</g>
<!-- df9abada2d17490ebc60752ac0af741b&#45;&gt;71239b8c063c4f5f9c76d2f91f73a950 -->
<g id="edge14" class="edge">
<title>df9abada2d17490ebc60752ac0af741b&#45;&gt;71239b8c063c4f5f9c76d2f91f73a950</title>
<path fill="none" stroke="#7b8894" d="M543.89,-553C543.89,-553 914.4,-553 914.4,-553 914.4,-553 914.4,-362.8 914.4,-362.8"/>
<polygon fill="#7b8894" stroke="#7b8894" points="543.89,-549.5 533.89,-553 543.89,-556.5 543.89,-549.5"/>
<polygon fill="#7b8894" stroke="#7b8894" points="917.9,-362.8 914.4,-352.8 910.9,-362.8 917.9,-362.8"/>
</g>
<!-- b696de9a4e564f98a600f4d9f3805bbf -->
<g id="node5" class="node">
<title>b696de9a4e564f98a600f4d9f3805bbf</title>
<image xlink:href="./icons/db.svg" width="100.8px" height="100.8px" preserveAspectRatio="xMinYMin meet" x="216" y="-142.8"/>
<text text-anchor="middle" x="266.4" y="-28.15" font-family="Sans-Serif" font-size="13.00" fill="#c9d1d9">WCN DB</text>
</g>
<!-- b4ad24ecd9b444f7855a8d66b3b28065&#45;&gt;b696de9a4e564f98a600f4d9f3805bbf -->
<g id="edge3" class="edge">
<title>b4ad24ecd9b444f7855a8d66b3b28065&#45;&gt;b696de9a4e564f98a600f4d9f3805bbf</title>
<path fill="none" stroke="#7b8894" d="M230.4,-214.86C230.4,-214.86 230.4,-172.1 230.4,-172.1"/>
<polygon fill="#7b8894" stroke="#7b8894" points="233.9,-172.1 230.4,-162.1 226.9,-172.1 233.9,-172.1"/>
</g>
<!-- cd030343bdad48de9c57b0871cbabf1a&#45;&gt;b696de9a4e564f98a600f4d9f3805bbf -->
<g id="edge4" class="edge">
<title>cd030343bdad48de9c57b0871cbabf1a&#45;&gt;b696de9a4e564f98a600f4d9f3805bbf</title>
<path fill="none" stroke="#7b8894" d="M302.4,-214.86C302.4,-214.86 302.4,-172.1 302.4,-172.1"/>
<polygon fill="#7b8894" stroke="#7b8894" points="305.9,-172.1 302.4,-162.1 298.9,-172.1 305.9,-172.1"/>
</g>
<!-- 01ede991c02a4a99ac751ff57882d353 -->
<g id="node8" class="node">
<title>01ede991c02a4a99ac751ff57882d353</title>
<image xlink:href="./icons/db.svg" width="100.8px" height="100.8px" preserveAspectRatio="xMinYMin meet" x="504" y="-142.8"/>
<text text-anchor="middle" x="554.4" y="-28.15" font-family="Sans-Serif" font-size="13.00" fill="#c9d1d9">WCN DB</text>
</g>
<!-- 17fff7d638bc48ae843afc9e8b666652&#45;&gt;01ede991c02a4a99ac751ff57882d353 -->
<g id="edge7" class="edge">
<title>17fff7d638bc48ae843afc9e8b666652&#45;&gt;01ede991c02a4a99ac751ff57882d353</title>
<path fill="none" stroke="#7b8894" d="M518.4,-214.86C518.4,-214.86 518.4,-172.1 518.4,-172.1"/>
<polygon fill="#7b8894" stroke="#7b8894" points="521.9,-172.1 518.4,-162.1 514.9,-172.1 521.9,-172.1"/>
</g>
<!-- 8c636471e5224b36802ca7c93be319b5&#45;&gt;01ede991c02a4a99ac751ff57882d353 -->
<g id="edge8" class="edge">
<title>8c636471e5224b36802ca7c93be319b5&#45;&gt;01ede991c02a4a99ac751ff57882d353</title>
<path fill="none" stroke="#7b8894" d="M590.4,-214.86C590.4,-214.86 590.4,-172.1 590.4,-172.1"/>
<polygon fill="#7b8894" stroke="#7b8894" points="593.9,-172.1 590.4,-162.1 586.9,-172.1 593.9,-172.1"/>
</g>
<!-- d408bd1e998b4966b90b676667aabd02 -->
<g id="node11" class="node">
<title>d408bd1e998b4966b90b676667aabd02</title>
<image xlink:href="./icons/db.svg" width="100.8px" height="100.8px" preserveAspectRatio="xMinYMin meet" x="792" y="-142.8"/>
<text text-anchor="middle" x="842.4" y="-28.15" font-family="Sans-Serif" font-size="13.00" fill="#c9d1d9">WCN DB</text>
</g>
<!-- 1bf1243967b94afdb763c0c1f1bef7e4&#45;&gt;d408bd1e998b4966b90b676667aabd02 -->
<g id="edge11" class="edge">
<title>1bf1243967b94afdb763c0c1f1bef7e4&#45;&gt;d408bd1e998b4966b90b676667aabd02</title>
<path fill="none" stroke="#7b8894" d="M806.4,-214.86C806.4,-214.86 806.4,-172.1 806.4,-172.1"/>
<polygon fill="#7b8894" stroke="#7b8894" points="809.9,-172.1 806.4,-162.1 802.9,-172.1 809.9,-172.1"/>
</g>
<!-- 71239b8c063c4f5f9c76d2f91f73a950&#45;&gt;d408bd1e998b4966b90b676667aabd02 -->
<g id="edge12" class="edge">
<title>71239b8c063c4f5f9c76d2f91f73a950&#45;&gt;d408bd1e998b4966b90b676667aabd02</title>
<path fill="none" stroke="#7b8894" d="M878.4,-214.86C878.4,-214.86 878.4,-172.1 878.4,-172.1"/>
<polygon fill="#7b8894" stroke="#7b8894" points="881.9,-172.1 878.4,-162.1 874.9,-172.1 881.9,-172.1"/>
</g>
</g>
</svg>
